<?xml version="1.0" standalone="no"?>
<!DOCTYPE svg PUBLIC "-//W3C//DTD SVG 1.1//EN" "http://www.w3.org/Graphics/SVG/1.1/DTD/svg11.dtd" >
<svg xmlns="http://www.w3.org/2000/svg" xmlns:xlink="http://www.w3.org/1999/xlink" version="1.1">
<metadata></metadata>
<defs>
<font id="carrois_gothic_scregular" horiz-adv-x="1105" >
<font-face units-per-em="2048" ascent="1638" descent="-410" />
<missing-glyph horiz-adv-x="614" />
<glyph horiz-adv-x="0" />
<glyph unicode="&#xd;" horiz-adv-x="614" />
<glyph horiz-adv-x="0" />
<glyph horiz-adv-x="0" />
<glyph horiz-adv-x="0" />
<glyph horiz-adv-x="0" />
<glyph horiz-adv-x="0" />
<glyph horiz-adv-x="0" />
<glyph horiz-adv-x="0" />
<glyph horiz-adv-x="0" />
<glyph unicode="&#x9;" horiz-adv-x="0" />
<glyph horiz-adv-x="0" />
<glyph horiz-adv-x="0" />
<glyph horiz-adv-x="0" />
<glyph horiz-adv-x="0" />
<glyph horiz-adv-x="0" />
<glyph horiz-adv-x="0" />
<glyph horiz-adv-x="0" />
<glyph horiz-adv-x="0" />
<glyph horiz-adv-x="0" />
<glyph horiz-adv-x="0" />
<glyph unicode=" "  horiz-adv-x="614" />
<glyph unicode="&#x09;" horiz-adv-x="614" />
<glyph unicode="&#xa0;" horiz-adv-x="614" />
<glyph unicode="!" horiz-adv-x="552" d="M174 0v205h205v-205h-205zM180 1475h185l-21 -983h-143z" />
<glyph unicode="&#x22;" horiz-adv-x="819" d="M154 1315v190h204v-188l-51 -289h-102zM461 1315v190h205v-188l-52 -289h-102z" />
<glyph unicode="#" horiz-adv-x="1177" d="M104 403l9 125h163l35 387h-166l13 125h164l34 394h146l-35 -394h291l35 394h145l-35 -394h170l-12 -125h-168l-35 -387h170l-8 -125h-172l-35 -403h-145l34 403h-290l-35 -403h-146l35 403h-162zM422 528h291l35 387h-291z" />
<glyph unicode="$" d="M104 299l160 29q12 -41 35 -80t59.5 -70t90 -50t124.5 -19q41 0 87.5 13t84 44t63.5 78t26 114q0 78 -23 128.5t-69 87t-116.5 67.5t-166.5 70q-160 63 -229.5 158.5t-69.5 211.5q0 152 89 250.5t251 118.5v229h147v-231q72 -10 129.5 -40t99.5 -71t71.5 -91t45.5 -101 l-151 -29q-25 80 -89.5 141.5t-179.5 61.5q-49 0 -94 -12.5t-78.5 -39t-54 -68.5t-20.5 -99q0 -43 11 -79t43 -68.5t89 -64.5t147 -65q74 -27 144.5 -61.5t124 -86.5t86.5 -126t33 -176q0 -72 -25 -138.5t-71 -120t-112.5 -90t-148.5 -49.5v-251h-147v249q-86 10 -152.5 43 t-116 79t-81 99.5t-46.5 104.5z" />
<glyph unicode="%" horiz-adv-x="1515" d="M123 1108q0 86 22.5 151.5t61.5 108.5t88 64.5t104 21.5t105.5 -21.5t88.5 -64.5t61.5 -108.5t23.5 -151.5t-23.5 -150.5t-62.5 -107.5t-89 -63.5t-104 -20.5q-53 0 -103 20.5t-89 63.5t-61.5 107.5t-22.5 150.5zM266 1108q0 -123 37 -176t96 -53t98.5 53t39.5 176 t-39 176t-99 53q-59 0 -96 -53t-37 -176zM395 0l586 1479l129 -45l-588 -1481zM838 326q0 86 22.5 151.5t61.5 108.5t88 64.5t104 21.5t105.5 -21.5t88.5 -64.5t61.5 -108.5t23.5 -151.5t-23.5 -150.5t-62.5 -107.5t-89.5 -63.5t-103.5 -20.5t-103 20.5t-89 63.5 t-61.5 107.5t-22.5 150.5zM981 326q0 -123 37 -176.5t96 -53.5t98 53.5t39 176.5t-38.5 176t-98.5 53q-59 0 -96 -53t-37 -176z" />
<glyph unicode="&#x26;" horiz-adv-x="1427" d="M164 354q0 72 18.5 128.5t54 104.5t86 89t113.5 82q-45 45 -83 87t-66.5 86t-45 91t-16.5 100q0 61 22.5 122t68.5 107t116 74.5t162 28.5q88 0 155.5 -24.5t114.5 -66.5t72 -96.5t25 -111.5q0 -70 -20.5 -125t-58.5 -103t-95.5 -92t-131.5 -90l346 -352q35 76 54.5 161 t25.5 177l148 -16q-12 -121 -42 -229.5t-79 -200.5l240 -242l-111 -96l-213 215q-76 -86 -182.5 -134t-249.5 -48q-92 0 -171 28.5t-136.5 78.5t-89 118.5t-31.5 148.5zM334 369q0 -45 14 -91.5t48 -83t88 -59t132 -22.5q98 0 174 41t132 110l-394 402q-53 -35 -90 -68 t-59.5 -67.5t-33.5 -73.5t-11 -88zM385 1133q0 -35 9 -65t30.5 -63.5t55.5 -73.5t85 -93q72 45 119 82.5t74.5 73.5t39 73t11.5 82q0 80 -62.5 130t-148.5 50q-104 0 -158.5 -51t-54.5 -145z" />
<glyph unicode="'" horiz-adv-x="512" d="M154 1315v190h204v-188l-51 -330h-102z" />
<glyph unicode="(" horiz-adv-x="696" d="M154 676q0 186 25.5 332.5t67.5 264.5t95 213t111 183l110 -51q-51 -94 -97 -190.5t-81 -207t-55.5 -243.5t-20.5 -301q0 -170 20.5 -302t55.5 -243t81 -207t97 -190l-110 -51q-57 88 -110.5 183t-95.5 213t-67.5 263.5t-25.5 333.5z" />
<glyph unicode=")" horiz-adv-x="696" d="M133 -266q51 94 97 190t81 207t55.5 243t20.5 302q0 168 -20.5 301t-55.5 243.5t-81 207t-97 190.5l111 51q57 -88 110.5 -183t95.5 -213t67.5 -264.5t25.5 -332.5q0 -188 -25.5 -333.5t-67.5 -263.5t-95.5 -213t-110.5 -183z" />
<glyph unicode="*" horiz-adv-x="962" d="M100 1169l50 148l282 -123l-33 311h164l-35 -309l285 123l47 -148l-297 -65l209 -234l-133 -86l-158 265l-157 -267l-131 88l206 234z" />
<glyph unicode="+" d="M133 590v143h340v334h160v-334h340v-143h-340v-340h-160v340h-340z" />
<glyph unicode="," horiz-adv-x="471" d="M80 -311l53 311v205h205v-203l-143 -313h-115z" />
<glyph unicode="-" horiz-adv-x="870" d="M123 588v147h625v-147h-625z" />
<glyph unicode="." horiz-adv-x="471" d="M133 0v205h205v-205h-205z" />
<glyph unicode="/" horiz-adv-x="542" d="M-25 -174l451 1649l141 -31l-450 -1649z" />
<glyph unicode="0" d="M121 705q0 199 30.5 338t87 226t137.5 126t179 39t179 -37t137.5 -122t87 -224t30.5 -346q0 -199 -30.5 -337.5t-87 -224.5t-137.5 -124.5t-179 -38.5t-179 35.5t-137.5 119.5t-87 223.5t-30.5 346.5zM289 705q0 -168 18.5 -283t53 -184.5t84 -99t110.5 -29.5t110.5 29.5 t84 99t53 184.5t18.5 283t-18.5 282.5t-53 185t-84 101.5t-110.5 31t-110.5 -31t-84 -101.5t-53 -185t-18.5 -282.5z" />
<glyph unicode="1" d="M193 1223l344 211h174v-1293h223v-141h-658v141h273v1137l-281 -172z" />
<glyph unicode="2" d="M152 1137q51 150 157.5 233.5t268.5 83.5q80 0 150.5 -21.5t123.5 -66.5t84 -115.5t31 -169.5q0 -63 -14.5 -122.5t-46.5 -122t-84 -133t-126 -156.5l-344 -402h596v-145h-778v162l422 502q55 68 95 121t64.5 101t36 94t11.5 101q0 111 -53.5 176.5t-176.5 65.5 q-98 0 -165.5 -59.5t-96.5 -169.5z" />
<glyph unicode="3" d="M143 188l129 74q33 -57 92.5 -105t163.5 -48q47 0 94.5 16t86.5 52t62.5 93.5t23.5 139.5q0 84 -22.5 137t-60.5 84t-88.5 42t-103.5 11h-90v137h96q94 0 159 72t65 192q0 133 -60.5 189.5t-159.5 56.5q-94 0 -156.5 -53t-84.5 -117l-137 53q51 121 158.5 180.5 t228.5 59.5q76 0 145.5 -22.5t120.5 -67.5t82 -112.5t31 -155.5q0 -68 -22 -123t-58.5 -98.5t-84.5 -71t-102 -37.5q61 -8 119 -33q57 -25 100 -68.5t68 -106t25 -142.5q0 -109 -39 -191t-100.5 -136t-138.5 -81.5t-155 -27.5q-131 0 -229 54t-158 154z" />
<glyph unicode="4" d="M145 281v147l306 1022l151 -29l-297 -1007h334v278l39 217h119v-495h196v-133h-196v-281h-158v281h-494z" />
<glyph unicode="5" d="M152 201l145 61q25 -61 82 -106t147 -45q39 0 86 15t87 55t67 109.5t27 180.5q0 92 -18.5 155.5t-51.5 101.5t-77 55.5t-95 17.5q-49 0 -104.5 -20.5t-110.5 -78.5l-135 15l39 717h643v-131h-496l-25 -457q47 33 105.5 54.5t126.5 21.5q74 0 140.5 -21.5t117.5 -74 t81 -140.5t30 -223q0 -106 -32 -194.5t-89.5 -153t-138 -100t-179.5 -35.5q-143 0 -234 61t-138 160z" />
<glyph unicode="6" d="M168 584q0 209 64.5 363.5t166 262t226.5 173t245 98.5l52 -123q-88 -27 -178.5 -72t-169 -112.5t-138 -163t-86.5 -224.5q53 57 122 91t155 34q90 0 155.5 -33.5t108.5 -94t63.5 -144.5t20.5 -186q0 -121 -33 -209t-88 -147.5t-127 -88t-149 -28.5q-213 0 -311.5 157.5 t-98.5 446.5zM332 598q0 -254 60.5 -371.5t187.5 -117.5q43 0 85 14t73.5 52t51 102.5t19.5 162.5q0 184 -58.5 263t-158.5 79q-82 0 -147.5 -42t-112.5 -95v-47z" />
<glyph unicode="7" d="M199 1290v144h766v-164l-512 -1270h-181l537 1290h-610z" />
<glyph unicode="8" d="M111 362q0 86 26.5 154t67.5 117t89 82t89 51q-37 20 -75 48t-68.5 67t-50 89t-19.5 115q0 94 33 164t86 116t121.5 67.5t142.5 21.5t142.5 -19.5t121.5 -61.5t86 -109.5t33 -163.5q0 -61 -20.5 -113.5t-52.5 -93.5t-72.5 -71.5t-81.5 -51.5q55 -27 106 -61.5t91 -82.5 t64.5 -108.5t24.5 -140.5q0 -86 -30.5 -159t-89 -126t-140.5 -82.5t-182 -29.5q-102 0 -183 29.5t-139.5 81.5t-89 121.5t-30.5 149.5zM287 377q0 -59 19.5 -108.5t54 -85.5t84 -56.5t108.5 -20.5q119 0 192.5 72t73.5 199q0 72 -26.5 122t-71.5 88t-106.5 67.5t-129.5 60.5 q-39 -23 -74.5 -52.5t-63.5 -69.5t-44 -93.5t-16 -122.5zM332 1096q0 -57 23.5 -99.5t61.5 -74t86 -56t97 -45.5q70 43 120 107.5t50 167.5q0 68 -17.5 112.5t-47 73.5t-69.5 41t-83 12t-83 -13t-70.5 -42t-49 -73.5t-18.5 -110.5z" />
<glyph unicode="9" d="M166 981q0 119 32.5 208t89 148.5t130.5 88t155 28.5q213 0 309.5 -148.5t96.5 -437.5q0 -229 -57.5 -396t-154.5 -278.5t-225 -170t-270 -70.5l-20 133q109 10 202 50t164.5 114t119.5 180.5t67 249.5q-53 -61 -127 -99t-162 -38q-86 0 -151.5 31.5t-109.5 90 t-66.5 139.5t-22.5 177zM332 993q0 -172 58.5 -246.5t160.5 -74.5q82 0 148.5 43t115.5 96v43q0 248 -57.5 361.5t-186.5 113.5q-43 0 -86 -17.5t-76.5 -57.5t-55 -103.5t-21.5 -157.5z" />
<glyph unicode=":" horiz-adv-x="471" d="M133 0v205h205v-205h-205zM133 901v205h205v-205h-205z" />
<glyph unicode=";" horiz-adv-x="471" d="M86 -311l47 309v207h205v-203l-143 -313h-109zM133 901v205h205v-205h-205z" />
<glyph unicode="&#x3c;" d="M133 575v185l803 332l47 -142l-721 -284l721 -322l-47 -141z" />
<glyph unicode="=" d="M133 391v144h840v-144h-840zM133 801v143h840v-143h-840z" />
<glyph unicode="&#x3e;" d="M123 344l721 322l-721 284l47 142l803 -332v-185l-803 -372z" />
<glyph unicode="?" horiz-adv-x="991" d="M117 1217q41 141 146.5 214.5t250.5 73.5q166 0 263 -88t97 -241q0 -106 -43 -184.5t-100 -139.5l-147 -164v-237h-168v284l188 205q59 63 80 118.5t21 121.5q0 76 -46.5 134t-152.5 58q-98 0 -153.5 -57.5t-78.5 -138.5zM397 0v215h215v-215h-215z" />
<glyph unicode="@" horiz-adv-x="1884" d="M164 639q0 240 80 404.5t201.5 267t268 148.5t281.5 46q162 0 295 -46t228.5 -138t148.5 -232.5t53 -328.5q0 -100 -24.5 -200.5t-72.5 -180.5t-120 -129t-164 -49q-51 0 -88 15t-62.5 40t-38.5 56.5t-17 64.5q-29 -70 -94.5 -121t-174.5 -51q-55 0 -106 19.5t-91 64.5 t-63.5 115.5t-23.5 173.5q0 94 21.5 196.5t71.5 186t131 138t200 54.5q90 0 155.5 -23.5t124.5 -76.5l-61 -492q-4 -23 -5 -45t-1 -39q0 -92 29.5 -130t86.5 -38q43 0 84 29t73 85t50.5 140t18.5 195q0 299 -142.5 465t-421.5 166q-111 0 -229.5 -44.5t-216.5 -135.5 t-160.5 -233t-62.5 -339q0 -174 50 -305t135 -218t196.5 -131t236.5 -44q51 0 91 3t74 8t65.5 12t66.5 15l33 -116q-63 -16 -137 -31.5t-189 -15.5q-170 0 -313 55t-247.5 160.5t-164 259t-59.5 350.5zM739 563q0 -74 13.5 -121t37 -73.5t53 -36.5t60.5 -10q61 0 108.5 50 t63.5 183l53 449q-20 18 -44.5 27t-67.5 9q-86 0 -140.5 -48t-84 -119.5t-41 -154.5t-11.5 -155z" />
<glyph unicode="A" horiz-adv-x="1132" d="M20 0l441 1475h213l438 -1475h-184l-109 395h-516l-110 -395h-173zM342 528h440l-217 787z" />
<glyph unicode="B" horiz-adv-x="1165" d="M184 0v1475h367q229 0 336.5 -96.5t107.5 -266.5q0 -57 -17 -109.5t-49 -95.5t-76 -74.5t-95 -46.5q55 -8 110.5 -32.5t98.5 -68.5t69.5 -109.5t26.5 -157.5q0 -113 -42 -193t-111.5 -130t-158.5 -72.5t-184 -22.5h-383zM358 133h205q61 0 117.5 14.5t101.5 48t72 88 t27 134.5q0 147 -82 224t-244 77h-197v-586zM358 844h189q141 0 207.5 69.5t66.5 192.5q0 131 -74.5 189.5t-199.5 58.5h-189v-510z" />
<glyph unicode="C" horiz-adv-x="1191" d="M143 737q0 229 49.5 379t126 236t169 119.5t180.5 33.5q80 0 144.5 -20.5t113.5 -54t85 -78.5t58 -95l-154 -59q-33 84 -91 127t-156 43q-70 0 -132.5 -29.5t-109.5 -102.5t-74.5 -193.5t-27.5 -305.5q0 -182 28.5 -303t76.5 -192.5t110.5 -102t130.5 -30.5q113 0 172 56 t96 142l149 -63q-57 -123 -157.5 -199t-263.5 -76q-82 0 -173.5 32t-169 118t-129 235.5t-51.5 382.5z" />
<glyph unicode="D" horiz-adv-x="1251" d="M184 0v1475h262q145 0 267.5 -34t209.5 -118t136 -226.5t49 -359.5q0 -211 -48 -352t-136 -227t-209 -122t-264 -36h-267zM358 135h91q125 0 216 32t150 103.5t88 186t29 280.5q0 317 -117 463t-371 146h-86v-1211z" />
<glyph unicode="E" horiz-adv-x="1024" d="M184 0v1475h717v-140h-543v-518h482v-135h-482v-543h543v-139h-717z" />
<glyph unicode="F" horiz-adv-x="962" d="M184 0v1475h707v-140h-533v-557h451v-139h-451v-639h-174z" />
<glyph unicode="G" horiz-adv-x="1224" d="M143 739q0 219 44 366.5t118 237t169 127t198 37.5q152 0 246 -60.5t147 -170.5l-147 -68q-35 78 -90.5 122t-149.5 44q-80 0 -146.5 -34.5t-112.5 -110.5t-71.5 -197t-25.5 -293q0 -182 23.5 -303t68.5 -194.5t106.5 -104.5t138.5 -31q170 0 252 123v445h-252v139h408 v-813h-135l-10 92q-55 -63 -130 -92t-157 -29q-102 0 -191.5 39t-156 128t-105.5 236.5t-39 364.5z" />
<glyph unicode="H" horiz-adv-x="1269" d="M184 0v1475h174v-660h553v660h174v-1475h-174v676h-553v-676h-174z" />
<glyph unicode="I" horiz-adv-x="542" d="M184 0v1475h174v-1475h-174z" />
<glyph unicode="J" horiz-adv-x="835" d="M10 131l133 90q25 -49 71 -77.5t99 -28.5q82 0 128 53t46 180v1127h175v-1137q0 -180 -93.5 -273.5t-253.5 -93.5q-113 0 -190.5 48.5t-114.5 111.5z" />
<glyph unicode="K" horiz-adv-x="1112" d="M184 0v1475h174v-644l463 644h195l-514 -703l579 -772h-213l-510 686v-686h-174z" />
<glyph unicode="L" horiz-adv-x="966" d="M184 0v1475h174v-1323h568v-152h-742z" />
<glyph unicode="M" horiz-adv-x="1529" d="M184 0v1475h228l368 -1057l340 1057h226v-1475h-172v1171l-322 -976h-154l-348 976v-1171h-166z" />
<glyph unicode="N" horiz-adv-x="1230" d="M184 0v1475h232l477 -1227v1227h154v-1475h-226l-479 1245v-1245h-158z" />
<glyph unicode="O" horiz-adv-x="1347" d="M143 737q0 215 45 361.5t119 236.5t169 130t198 40q102 0 197.5 -40t169 -130t118.5 -236.5t45 -361.5t-45 -361.5t-118.5 -236.5t-170 -130t-196.5 -40q-102 0 -197.5 40t-169.5 130t-119 236.5t-45 361.5zM322 737q0 -311 88 -473t264 -162t264 162t88 473t-88 473 t-264 162t-264 -162t-88 -473z" />
<glyph unicode="P" horiz-adv-x="1067" d="M184 0v1475h332q113 0 207 -28t161.5 -86t104.5 -146.5t37 -208.5q0 -121 -38 -210t-105.5 -147.5t-161.5 -87.5t-207 -29h-156v-532h-174zM358 666h154q336 0 336 340q0 160 -81 247.5t-247 87.5h-162v-675z" />
<glyph unicode="Q" horiz-adv-x="1347" d="M143 737q0 215 45 361.5t119 236.5t169 130t198 40q102 0 197.5 -40t169 -130t118.5 -236.5t45 -361.5q0 -170 -28.5 -296t-78.5 -215t-117 -144t-142 -82l301 -180l-117 -164l-367 313q-98 4 -191 46t-164 132.5t-114 235.5t-43 354zM322 737q0 -311 88 -473t264 -162 t264 162t88 473t-88 473t-264 162t-264 -162t-88 -473z" />
<glyph unicode="R" horiz-adv-x="1140" d="M184 0v1475h308q240 0 374.5 -110t134.5 -345q0 -84 -20 -148.5t-55 -113.5t-82 -84t-101 -58l367 -616h-207l-330 578h-215v-578h-174zM358 711h138q160 0 243.5 76.5t83.5 232.5t-75.5 238.5t-258.5 82.5h-131v-630z" />
<glyph unicode="S" horiz-adv-x="1122" d="M88 268l148 56q14 -41 37.5 -80t60.5 -69t89 -48t126 -18q49 0 98 13t89 44t64.5 82t24.5 125q0 78 -19.5 129t-61.5 90t-109.5 69.5t-161.5 69.5q-166 68 -244.5 164t-78.5 238q0 78 28.5 146.5t83.5 118.5t134 78.5t182 28.5q174 0 272 -70.5t151 -191.5l-151 -53 q-35 86 -96 133t-172 47q-115 0 -189 -54t-74 -171q0 -53 14.5 -94t48.5 -74t89 -62.5t137 -60.5q80 -31 151.5 -67.5t126 -90t86.5 -129t32 -184.5q0 -84 -34 -160t-94.5 -132t-144.5 -89t-184 -33q-102 0 -179 25.5t-132.5 67.5t-91 95.5t-56.5 110.5z" />
<glyph unicode="T" horiz-adv-x="972" d="M41 1323v152h891v-152h-361v-1323h-174v1323h-356z" />
<glyph unicode="U" horiz-adv-x="1247" d="M174 428v1047h174v-1045q0 -154 63.5 -237.5t213.5 -83.5t216 83.5t66 237.5v1045h166v-1047q0 -225 -115.5 -342t-332.5 -117t-334 117t-117 342z" />
<glyph unicode="V" horiz-adv-x="1075" d="M20 1475h181l342 -1350l352 1350h160l-398 -1475h-233z" />
<glyph unicode="W" horiz-adv-x="1554" d="M51 1475h178l195 -1293l260 1102h223l244 -1098l192 1289h160l-246 -1475h-208l-261 1098l-268 -1098h-223z" />
<glyph unicode="X" horiz-adv-x="1126" d="M72 0l403 762l-366 713h194l272 -549l285 549h180l-385 -707l400 -768h-199l-295 598l-311 -598h-178z" />
<glyph unicode="Y" horiz-adv-x="1048" d="M20 1475h191l321 -705l326 705h170l-414 -885v-590h-172v590z" />
<glyph unicode="Z" horiz-adv-x="1024" d="M82 0v154l659 1183h-612v138h793v-148l-658 -1190h637v-137h-819z" />
<glyph unicode="[" horiz-adv-x="696" d="M154 -348v2007h415v-139h-256v-1729h256v-139h-415z" />
<glyph unicode="\" horiz-adv-x="542" d="M-25 1444l142 31l450 -1649l-141 -31z" />
<glyph unicode="]" horiz-adv-x="696" d="M127 -209h256v1729h-256v139h416v-2007h-416v139z" />
<glyph unicode="^" horiz-adv-x="1024" d="M82 819l342 656h184l334 -656h-172l-254 529l-262 -529h-172z" />
<glyph unicode="_" horiz-adv-x="983" d="M-4 -106h991v-140h-991v140z" />
<glyph unicode="`" horiz-adv-x="552" d="M102 1446l113 141l297 -254l-70 -88z" />
<glyph unicode="a" horiz-adv-x="1099" d="M20 0l431 1147h200l428 -1147h-182l-96 276h-512l-99 -276h-170zM334 408h422l-207 604z" />
<glyph unicode="b" horiz-adv-x="1118" d="M184 0v1147h344q240 0 341.5 -76t101.5 -221q0 -102 -58.5 -167t-152.5 -79q53 -6 99 -25.5t81 -54.5t55.5 -86t20.5 -119q0 -88 -36 -149t-100.5 -99t-155.5 -54.5t-200 -16.5h-340zM352 133h203q57 0 109.5 5t91.5 24.5t61.5 56.5t22.5 100q0 104 -60.5 161t-216.5 57 h-211v-404zM352 664h205q135 0 190.5 47t55.5 139q0 98 -63.5 136t-194.5 38h-193v-360z" />
<glyph unicode="c" horiz-adv-x="1153" d="M143 573q0 172 47.5 289t120 186.5t160.5 99.5t168 30q143 0 235.5 -60.5t145.5 -146.5l-141 -70q-33 63 -93.5 102t-146.5 39q-55 0 -112.5 -21.5t-103.5 -75.5t-76 -144t-30 -228q0 -135 30 -225t76 -144t102.5 -76t111.5 -22q94 0 160.5 44.5t101.5 121.5l139 -75 q-51 -98 -152.5 -163t-254.5 -65q-80 0 -166 29t-157.5 97.5t-118 185t-46.5 292.5z" />
<glyph unicode="d" horiz-adv-x="1204" d="M184 0v1147h297q102 0 206 -24.5t186.5 -89t135 -176.5t52.5 -284t-57.5 -283.5t-143.5 -176t-188.5 -89t-192.5 -24.5h-295zM350 129h137q76 0 150 18.5t131 67.5t92 135t35 223t-37 224.5t-96.5 137.5t-132 68.5t-144.5 18.5h-135v-893z" />
<glyph unicode="e" horiz-adv-x="1001" d="M184 0v1147h695v-137h-527v-361h467v-133h-467v-379h527v-137h-695z" />
<glyph unicode="f" horiz-adv-x="923" d="M184 0v1147h658v-137h-490v-381h430v-133h-430v-496h-168z" />
<glyph unicode="g" horiz-adv-x="1177" d="M143 573q0 176 47.5 293t120 185.5t159.5 97.5t165 29q70 0 127 -16.5t103 -43t80 -62.5t56 -73l-120 -74q-41 68 -96.5 105t-147.5 37q-55 0 -112.5 -21.5t-104.5 -76t-77 -146.5t-30 -234q0 -135 26 -226t69 -146.5t97 -79t109 -23.5q88 0 152.5 46t105.5 104v256h-241 v129h389v-633h-115l-10 115q-39 -63 -117 -104.5t-168 -41.5q-84 0 -167 31t-149.5 102.5t-108.5 186t-42 284.5z" />
<glyph unicode="h" horiz-adv-x="1243" d="M184 0v1147h168v-496h537v496h170v-1147h-170v514h-537v-514h-168z" />
<glyph unicode="i" horiz-adv-x="536" d="M184 0v1147h168v-1147h-168z" />
<glyph unicode="j" horiz-adv-x="780" d="M10 158l140 65q45 -110 141 -110h2q78 0 111.5 46t33.5 140v848h168v-844q0 -166 -87 -248t-228 -82q-98 0 -171 51.5t-110 133.5z" />
<glyph unicode="k" horiz-adv-x="1067" d="M184 0v1147h166v-496l424 496h201l-475 -547l536 -600h-213l-473 526v-526h-166z" />
<glyph unicode="l" horiz-adv-x="944" d="M184 0v1147h168v-1002h551v-145h-719z" />
<glyph unicode="m" horiz-adv-x="1472" d="M184 0v1147h236l330 -959l303 959h235v-1147h-164v901l-290 -901h-177l-315 901v-901h-158z" />
<glyph unicode="n" horiz-adv-x="1187" d="M184 0v1147h242l424 -948v948h154v-1147h-238l-424 958v-958h-158z" />
<glyph unicode="o" horiz-adv-x="1314" d="M143 573q0 160 43 275t115 188.5t165 107.5t191 34t191.5 -34t165 -107.5t114.5 -188.5t43 -275t-43 -274.5t-115.5 -188t-164.5 -107.5t-191 -34q-98 0 -190 34t-165 107.5t-116 188t-43 274.5zM315 573q0 -233 91.5 -351t250.5 -118q160 0 251 118t91 351t-91 352 t-251 119t-251 -117.5t-91 -353.5z" />
<glyph unicode="p" horiz-adv-x="1040" d="M184 0v1147h316q104 0 190 -23.5t147.5 -69.5t96.5 -118t35 -166q0 -96 -36 -167t-100.5 -118t-151.5 -69.5t-189 -22.5h-142v-393h-166zM350 520h146q303 0 303 250q0 121 -75 185.5t-220 64.5h-154v-500z" />
<glyph unicode="q" horiz-adv-x="1314" d="M143 573q0 160 43 275t115 188.5t165 107.5t191 34t191.5 -34t165 -107.5t114.5 -188.5t43 -275q0 -127 -28.5 -225t-76.5 -168.5t-113.5 -116t-139.5 -65.5l260 -170l-129 -150l-313 291q-94 4 -182.5 41t-156 111t-108.5 185.5t-41 266.5zM315 573q0 -233 91.5 -351 t250.5 -118q160 0 251 118t91 351t-91 352t-251 119t-251 -117.5t-91 -353.5z" />
<glyph unicode="r" horiz-adv-x="1093" d="M184 0v1147h305q104 0 190.5 -20.5t148 -65.5t96 -113.5t34.5 -163.5q0 -143 -63.5 -221t-161.5 -112l330 -451h-197l-299 422h-217v-422h-166zM350 549h135q154 0 228.5 54t74.5 181q0 121 -74.5 178.5t-219.5 57.5h-144v-471z" />
<glyph unicode="s" horiz-adv-x="1079" d="M102 213l142 66q12 -29 36.5 -61t61.5 -58.5t87 -43t112 -16.5q45 0 90 10.5t79.5 33t57.5 58.5t23 87t-15.5 85t-52.5 59.5t-98.5 49t-153.5 54.5q-147 49 -232 122.5t-85 202.5q0 57 26.5 111.5t76.5 96.5t123 66.5t167 24.5q141 0 240.5 -59.5t152.5 -157.5l-143 -57 q-37 72 -95.5 109.5t-150.5 37.5q-45 0 -88 -9t-76 -28.5t-53.5 -49t-20.5 -73.5q0 -43 15.5 -72.5t48.5 -54t86 -46t131 -50.5q90 -33 157.5 -62.5t113.5 -68.5t68.5 -92t22.5 -133q0 -72 -29.5 -131.5t-84 -102.5t-131 -67.5t-170.5 -24.5q-92 0 -165 22.5t-127 58.5 t-91 79t-56 84z" />
<glyph unicode="t" horiz-adv-x="946" d="M51 1001v146h844v-146h-340v-1001h-168v1001h-336z" />
<glyph unicode="u" horiz-adv-x="1220" d="M174 371v776h168v-789q0 -117 62.5 -184.5t207.5 -67.5t209 68t64 184v789h162v-776q0 -180 -113 -291t-324 -111q-209 0 -322.5 110.5t-113.5 291.5z" />
<glyph unicode="v" horiz-adv-x="1028" d="M20 1147h185l313 -1020l322 1020h168l-379 -1147h-230z" />
<glyph unicode="w" horiz-adv-x="1482" d="M51 1147h178l174 -971l244 971h223l226 -967l172 967h164l-228 -1147h-211l-241 979l-248 -979h-225z" />
<glyph unicode="x" d="M72 0l383 590l-349 557h197l258 -418l270 418h185l-361 -543l379 -604h-200l-283 463l-295 -463h-184z" />
<glyph unicode="y" horiz-adv-x="997" d="M20 1147h189l297 -553l303 553h168l-393 -705v-442h-164v442z" />
<glyph unicode="z" horiz-adv-x="980" d="M82 0v143l614 873h-569v131h752v-139l-611 -877h592v-131h-778z" />
<glyph unicode="{" horiz-adv-x="696" d="M70 580v153q74 0 117.5 41t43.5 139v404q0 86 18.5 150.5t59.5 107.5t109.5 63.5t169.5 20.5v-123q-121 0 -162 -41t-41 -147v-390q0 -135 -42 -203.5t-120 -97.5q78 -29 120 -98.5t42 -204.5v-391q0 -53 9 -90t32 -58.5t61.5 -30.5t100.5 -9v-123q-100 0 -169 20.5 t-110 63.5t-59.5 107.5t-18.5 150.5v405q0 98 -44 139.5t-117 41.5z" />
<glyph unicode="|" horiz-adv-x="655" d="M244 -246v1884h168v-1884h-168z" />
<glyph unicode="}" horiz-adv-x="696" d="M109 -225q61 0 100 9t61.5 30.5t31.5 58.5t9 90v391q0 135 42 205t120 98q-78 29 -120 97.5t-42 203.5v390q0 106 -41 147t-161 41v123q100 0 168.5 -20.5t109.5 -63.5t59.5 -107.5t18.5 -150.5v-404q0 -98 44 -139t118 -41v-153q-74 0 -118 -41t-44 -140v-405 q0 -86 -18.5 -150.5t-59.5 -107.5t-109.5 -63.5t-168.5 -20.5v123z" />
<glyph unicode="~" horiz-adv-x="1146" d="M82 645q72 70 147.5 103.5t147.5 33.5t124 -15t95 -33.5t83 -34t89 -15.5q63 0 105 25.5t88 66.5l102 -108q-72 -70 -147.5 -104t-147.5 -34t-124 15.5t-95 34t-83 34t-89 15.5q-63 0 -105.5 -25.5t-87.5 -66.5z" />
<glyph unicode="&#xa1;" horiz-adv-x="552" d="M174 901v205h205v-205h-205zM188 -369l21 983h143l21 -983h-185z" />
<glyph unicode="&#xa2;" d="M129 551q0 133 27.5 235.5t78 173t118 112.5t147.5 56v285h147v-280q92 -10 164 -50.5t135 -124.5l-127 -92q-53 78 -107.5 109t-127.5 31q-127 0 -205 -109t-78 -342t76 -339.5t203 -106.5q88 0 145 42t111 130l133 -86q-53 -82 -132 -140.5t-190 -74.5v-256h-147v256 q-78 12 -145.5 51t-118 107.5t-79 171t-28.5 241.5z" />
<glyph unicode="&#xa3;" d="M123 0v135h14q72 4 119 53.5t47 151.5v385h-160v123h160v219q0 100 31 173t83 120t119.5 70.5t141.5 23.5q145 0 234 -60.5t143 -181.5l-152 -53q-35 86 -84 127t-141 41q-90 0 -147.5 -64.5t-57.5 -199.5v-215h401v-123h-401v-373q0 -76 -24.5 -130t-77.5 -87h596v-135 h-844z" />
<glyph unicode="&#xa4;" horiz-adv-x="1228" d="M84 260l131 131q-39 57 -61.5 132t-22.5 173q0 92 20.5 167t57.5 134l-125 127l98 99l119 -119q68 57 149.5 85t161.5 28t162 -29t150 -88l123 123l98 -99l-131 -131q35 -59 56.5 -132t21.5 -165q0 -96 -21.5 -169.5t-60.5 -133.5l135 -133l-98 -98l-129 129 q-68 -53 -148 -79t-158 -26t-157.5 25t-145.5 78l-127 -127zM274 696q0 -184 95.5 -284.5t244.5 -100.5q150 0 242 100.5t92 284.5q0 92 -24.5 165t-68.5 123t-106.5 78t-136.5 28t-136 -28t-107 -78t-70 -123t-25 -165z" />
<glyph unicode="&#xa5;" d="M74 1434h184l305 -729l309 729h168l-329 -707h231v-123h-305v-164h305v-123h-305v-317h-154v317h-319v123h319v164h-319v121h246z" />
<glyph unicode="&#xa6;" horiz-adv-x="655" d="M244 -246v778h168v-778h-168zM244 860v778h168v-778h-168z" />
<glyph unicode="&#xa7;" d="M164 6l145 62q29 -68 82 -108t144 -40q37 0 71.5 10.5t62 30t45 50t17.5 73.5t-13 72.5t-44 52t-81 41t-124 41.5q-135 41 -216 115.5t-81 207.5q0 104 55.5 172t130.5 109q-145 84 -145 250q0 76 28.5 133t78 96t113 59.5t132.5 20.5q135 0 228.5 -55.5t134.5 -153.5 l-146 -61q-29 68 -79 105.5t-140 37.5q-37 0 -69.5 -10t-59 -29.5t-42 -50.5t-15.5 -74t15.5 -71.5t47 -51t81.5 -42t118 -42.5t123 -51t93 -67t59.5 -89t21.5 -116q0 -106 -56.5 -174t-131.5 -109q147 -88 147 -248q0 -76 -30.5 -133t-82 -96t-116 -59.5t-134.5 -20.5 q-135 0 -231 57.5t-137 155.5zM330 639q0 -57 22.5 -94t61.5 -61.5t91 -42t109 -33.5l7 -2q72 35 114.5 79.5t42.5 122.5q0 57 -23.5 95t-62.5 63t-90 41t-108 33l-9 2q-72 -35 -113.5 -80t-41.5 -123z" />
<glyph unicode="&#xa8;" horiz-adv-x="737" d="M61 1341v185h195v-185h-195zM481 1341v185h195v-185h-195z" />
<glyph unicode="&#xa9;" horiz-adv-x="1726" d="M121 737q0 203 65.5 347.5t171 238.5t238.5 138t266 44t266.5 -44t239 -138t171 -238.5t65.5 -347.5t-65.5 -347t-171 -238.5t-239 -138.5t-266.5 -44t-266 44t-238.5 138.5t-171 239t-65.5 346.5zM260 737q0 -166 51 -289.5t135 -204.5t193 -122t223 -41q115 0 223.5 41 t192.5 122t135 204.5t51 289.5t-51 290t-135 205t-192.5 122t-223.5 41t-223.5 -41t-192.5 -122t-135 -205t-51 -290zM571 739q0 127 29 209t73 129t97 65.5t102 18.5q98 0 156.5 -51t89.5 -125l-121 -43q-8 25 -17 45.5t-23.5 35.5t-35 24.5t-51.5 9.5t-59.5 -15.5 t-51 -52.5t-36.5 -97.5t-14 -152.5t14 -152.5t37.5 -96t52.5 -51t59 -15.5q63 0 92 31.5t44 79.5l120 -46q-29 -74 -93 -123t-175 -49q-45 0 -96 17.5t-94 64.5t-71 129t-28 211z" />
<glyph unicode="&#xaa;" horiz-adv-x="972" d="M156 872q0 162 125 227.5t368 65.5v88q0 66 -37 105t-114 39q-49 0 -93.5 -30t-62.5 -85l-143 55q41 74 113.5 121t195.5 47q61 0 116.5 -14t95.5 -44t63.5 -75t23.5 -106v-615h-129l-14 103q-41 -51 -101.5 -83t-148.5 -32q-55 0 -102.5 17.5t-82 48t-54 73.5t-19.5 94z M195 0v143h624v-143h-624zM317 885q0 -41 13.5 -66.5t35 -41t48 -21.5t53.5 -6q55 0 103 24.5t79 59.5v229q-96 0 -159.5 -11.5t-101.5 -34t-54.5 -56t-16.5 -76.5z" />
<glyph unicode="&#xab;" horiz-adv-x="1003" d="M123 627l239 420l111 -41l-168 -385l148 -414l-111 -41zM489 627l240 420l111 -41l-168 -385l147 -414l-110 -41z" />
<glyph unicode="&#xac;" d="M133 590v143h840v-444h-150v301h-690z" />
<glyph unicode="&#xad;" horiz-adv-x="870" d="M123 588v147h625v-147h-625z" />
<glyph unicode="&#xae;" horiz-adv-x="1257" d="M47 911q0 160 54.5 272.5t138.5 184.5t187 104.5t202 32.5q98 0 201.5 -32.5t187.5 -104.5t138 -184.5t54 -272.5t-54 -272.5t-138 -184t-187.5 -104.5t-201.5 -33t-201.5 33t-187.5 104.5t-138.5 184.5t-54.5 272zM182 911q0 -131 38 -223t100.5 -150.5t143.5 -85 t165 -26.5t164.5 26.5t143 85t100.5 150.5t38 223t-38 223.5t-100.5 150.5t-143 85t-164.5 27t-165 -27t-143.5 -85t-100.5 -150.5t-38 -223.5zM444 602v627h183q92 0 156.5 -49.5t64.5 -145.5q0 -63 -31 -108t-82 -68l139 -256h-135l-116 229h-60v-229h-119zM563 930h66 q41 0 66.5 28.5t25.5 75.5q0 45 -25.5 72t-72.5 27h-60v-203z" />
<glyph unicode="&#xaf;" horiz-adv-x="675" d="M61 1364v141h553v-141h-553z" />
<glyph unicode="&#xb0;" horiz-adv-x="727" d="M82 1159q0 72 23.5 127t62.5 92t90 56.5t107 19.5q55 0 106 -19.5t90 -56.5t61.5 -92t22.5 -127t-22.5 -126t-61.5 -91t-90 -55.5t-106 -18.5t-106.5 18.5t-90.5 55.5t-62.5 91t-23.5 126zM221 1159q0 -86 38 -135t106 -49t105.5 49t37.5 135t-38 137.5t-105 51.5 q-68 0 -106 -51.5t-38 -137.5z" />
<glyph unicode="&#xb1;" d="M133 0v143h840v-143h-840zM133 590v143h340v334h160v-334h340v-143h-340v-299h-160v299h-340z" />
<glyph unicode="&#xb2;" horiz-adv-x="696" d="M86 1475q29 80 95.5 132t176.5 52q51 0 97.5 -13.5t81 -42t56 -73.5t21.5 -109q0 -78 -52 -144.5t-118 -131.5l-161 -162h327v-123h-514v123l271 274q33 33 62.5 77t29.5 93q0 43 -25 80t-88 37q-49 0 -79.5 -33.5t-39.5 -72.5z" />
<glyph unicode="&#xb3;" horiz-adv-x="696" d="M80 1030l139 41q8 -41 38 -75.5t85 -34.5q63 0 93 37.5t30 99.5q0 76 -41 98.5t-96 22.5h-27v104h37q45 0 75.5 29.5t30.5 89.5q0 41 -28.5 71.5t-79.5 30.5q-49 0 -80 -29.5t-41 -78.5l-135 41q33 92 103.5 137t166.5 45q43 0 87 -12.5t79 -39t56.5 -67.5t21.5 -96 q0 -53 -31 -98.5t-94 -65.5q29 -6 56.5 -20.5t49 -37t34 -56t12.5 -79.5q0 -57 -21.5 -102t-59.5 -75.5t-88.5 -46t-107.5 -15.5q-55 0 -100 16.5t-79 42t-55.5 58t-29.5 65.5z" />
<glyph unicode="&#xb4;" horiz-adv-x="552" d="M41 1333l297 254l113 -141l-340 -201z" />
<glyph unicode="&#xb5;" horiz-adv-x="1097" d="M164 -369v1475h164v-737q0 -78 15 -127t43 -78t65.5 -40t83.5 -11q76 0 132 43t103 127v823h164v-1106h-143l-9 127q-43 -72 -107.5 -109.5t-146.5 -37.5q-57 0 -111.5 20t-88.5 61v-430h-164z" />
<glyph unicode="&#xb6;" horiz-adv-x="1126" d="M129 1100q0 113 33 178t80 100t99 45.5t91 10.5h156v-1782h-156v1116q-39 0 -91 7t-99 40t-80 99.5t-33 185.5zM766 -348v1782h156v-1782h-156z" />
<glyph unicode="&#xb7;" horiz-adv-x="645" d="M219 559v205h205v-205h-205z" />
<glyph unicode="&#xb8;" horiz-adv-x="571" d="M72 -444l51 100q23 -10 56.5 -19.5t64.5 -9.5q47 0 81.5 18.5t34.5 71.5q0 47 -50 68.5t-126 32.5l41 223h133l-10 -145q86 -18 124 -69.5t38 -117.5q0 -90 -67.5 -146.5t-172.5 -56.5q-59 0 -109 13.5t-89 36.5z" />
<glyph unicode="&#xb9;" horiz-adv-x="696" d="M80 1513l207 125h153v-653h152v-125h-481v125h184v510l-154 -90z" />
<glyph unicode="&#xba;" horiz-adv-x="972" d="M143 1067q0 121 29 205t76 136t109.5 74.5t129.5 22.5q68 0 129.5 -22.5t109.5 -74.5t75.5 -136t27.5 -205t-27.5 -204t-74.5 -133t-109.5 -71.5t-130.5 -21.5t-130 21.5t-110 71.5t-76 133t-28 204zM178 0v143h621v-143h-621zM307 1067q0 -166 52.5 -240.5t129.5 -74.5 q78 0 128.5 74.5t50.5 240.5t-50.5 244t-130.5 78t-130 -78t-50 -244z" />
<glyph unicode="&#xbb;" horiz-adv-x="1003" d="M164 1006l110 41l240 -420l-219 -461l-111 41l148 414zM530 1006l111 41l240 -420l-219 -461l-111 41l147 414z" />
<glyph unicode="&#xbc;" horiz-adv-x="1720" d="M131 1309l207 125h154v-654h151v-125h-481v125h184v510l-153 -90zM367 -143l915 1802l131 -60l-915 -1802zM1012 145v127l188 525l123 -37l-174 -496h168v98l22 130h109v-228h115v-119h-115v-145h-135v145h-301z" />
<glyph unicode="&#xbd;" horiz-adv-x="1720" d="M117 1309l207 125h153v-654h152v-125h-482v125h185v510l-154 -90zM367 -143l915 1802l131 -60l-915 -1802zM1049 614q29 80 95 132.5t177 52.5q51 0 97 -13.5t81 -42t56.5 -73.5t21.5 -109q0 -78 -52 -144.5t-118 -131.5l-162 -162h328v-123h-514v123l270 274 q33 33 62.5 77t29.5 93q0 43 -24.5 80t-87.5 37q-49 0 -80 -34t-39 -72z" />
<glyph unicode="&#xbe;" horiz-adv-x="1720" d="M158 825l139 41q8 -41 38 -75.5t85 -34.5q63 0 93 37.5t30 99.5q0 76 -41 98.5t-96 22.5h-27v104h37q45 0 75.5 30t30.5 89q0 41 -28.5 71.5t-79.5 30.5q-49 0 -80 -29.5t-41 -78.5l-135 41q33 92 103.5 137t166.5 45q43 0 87 -12t79 -39t56.5 -68t21.5 -96 q0 -53 -31 -98t-94 -66q29 -6 56.5 -20.5t49 -37t33.5 -56t12 -78.5q0 -57 -21.5 -102.5t-59 -76t-88 -46t-107.5 -15.5q-55 0 -100.5 16.5t-79 42t-55 58.5t-29.5 65zM367 -143l915 1802l131 -60l-915 -1802zM1012 145v127l188 525l123 -37l-174 -496h168v98l22 130h109 v-228h115v-119h-115v-145h-135v145h-301z" />
<glyph unicode="&#xbf;" horiz-adv-x="991" d="M117 -70q0 106 43 184.5t100 139.5l148 164v237h167v-284l-188 -205q-59 -63 -79.5 -118.5t-20.5 -121.5q0 -37 11 -71.5t34.5 -61t61.5 -43t91 -16.5q98 0 153.5 57t78.5 139l157 -41q-41 -141 -146 -214.5t-251 -73.5q-166 0 -263 88t-97 241zM379 891v215h215v-215 h-215z" />
<glyph unicode="&#xc0;" horiz-adv-x="1132" d="M20 0l441 1475h213l438 -1475h-184l-109 395h-516l-110 -395h-173zM268 1712l89 141l319 -211l-49 -90zM342 528h440l-217 787z" />
<glyph unicode="&#xc1;" horiz-adv-x="1132" d="M20 0l441 1475h213l438 -1475h-184l-109 395h-516l-110 -395h-173zM342 528h440l-217 787zM459 1642l320 211l88 -141l-359 -160z" />
<glyph unicode="&#xc2;" horiz-adv-x="1132" d="M20 0l441 1475h213l438 -1475h-184l-109 395h-516l-110 -395h-173zM241 1647l250 186h148l250 -186l-74 -99l-250 144l-250 -144zM342 528h440l-217 787z" />
<glyph unicode="&#xc3;" horiz-adv-x="1132" d="M20 0l441 1475h213l438 -1475h-184l-109 395h-516l-110 -395h-173zM252 1714q37 39 91 65.5t108 26.5q49 0 80.5 -11t56 -23.5t49.5 -23.5t59 -11q41 0 67 14t54 37l70 -98q-37 -39 -91.5 -65.5t-107.5 -26.5q-49 0 -80.5 11t-56.5 23.5t-49.5 23.5t-59.5 11 q-41 0 -66.5 -14.5t-53.5 -36.5zM342 528h440l-217 787z" />
<glyph unicode="&#xc4;" horiz-adv-x="1132" d="M20 0l441 1475h213l438 -1475h-184l-109 395h-516l-110 -395h-173zM260 1608v184h195v-184h-195zM342 528h440l-217 787zM680 1608v184h195v-184h-195z" />
<glyph unicode="&#xc5;" horiz-adv-x="1132" d="M20 0l441 1475h213l438 -1475h-184l-109 395h-516l-110 -395h-173zM313 1655q0 55 20.5 98t54.5 74t80 46t97 15t97 -15t80 -46t54.5 -74t20.5 -98t-20.5 -98.5t-54.5 -74t-80 -46t-97 -15.5t-97 15.5t-80 46t-54.5 73.5t-20.5 99zM342 528h440l-217 787zM442 1655 q0 -66 36 -99.5t87 -33.5t87 33.5t36 99.5t-36 99.5t-87 33.5t-87 -34t-36 -99z" />
<glyph unicode="&#xc6;" horiz-adv-x="1679" d="M20 0l564 1475h901v-134h-672l119 -528h543v-131h-514l120 -549h475v-133h-620l-84 395h-518l-141 -395h-173zM383 528h440l-161 770z" />
<glyph unicode="&#xc7;" horiz-adv-x="1191" d="M143 737q0 229 49.5 379t126 236t169 119.5t180.5 33.5q80 0 144.5 -20.5t113.5 -54t85 -78.5t58 -95l-154 -59q-33 84 -91 127t-156 43q-70 0 -132.5 -29.5t-109.5 -102.5t-74.5 -193.5t-27.5 -305.5q0 -182 28.5 -303t76.5 -192.5t110.5 -102t130.5 -30.5q113 0 172 56 t96 142l149 -63q-53 -113 -141 -185.5t-227 -87.5l-4 -75q86 -18 124 -69.5t38 -117.5q0 -90 -68 -146.5t-172 -56.5q-59 0 -109.5 13.5t-89.5 36.5l51 100q23 -10 57 -19.5t64 -9.5q47 0 82 18.5t35 71.5q0 47 -50 68.5t-126 32.5l29 159q-78 12 -155 56.5t-140.5 132.5 t-102.5 227t-39 344z" />
<glyph unicode="&#xc8;" horiz-adv-x="1024" d="M184 0v1475h717v-140h-543v-518h482v-135h-482v-543h543v-139h-717zM243 1712l89 141l319 -211l-49 -90z" />
<glyph unicode="&#xc9;" horiz-adv-x="1024" d="M184 0v1475h717v-140h-543v-518h482v-135h-482v-543h543v-139h-717zM422 1648l320 211l88 -141l-359 -160z" />
<glyph unicode="&#xca;" horiz-adv-x="1024" d="M184 0v1475h717v-140h-543v-518h482v-135h-482v-543h543v-139h-717zM221 1647l250 186h148l250 -186l-74 -99l-250 144l-250 -144z" />
<glyph unicode="&#xcb;" horiz-adv-x="1024" d="M184 0v1475h717v-140h-543v-518h482v-135h-482v-543h543v-139h-717zM237 1608v184h195v-184h-195zM657 1608v184h195v-184h-195z" />
<glyph unicode="&#xcc;" horiz-adv-x="542" d="M-7 1712l89 141l319 -211l-49 -90zM184 0v1475h174v-1475h-174z" />
<glyph unicode="&#xcd;" horiz-adv-x="542" d="M145 1642l320 211l88 -141l-359 -160zM184 0v1475h174v-1475h-174z" />
<glyph unicode="&#xce;" horiz-adv-x="542" d="M-52 1647l250 186h148l250 -186l-74 -99l-250 144l-250 -144zM184 0v1475h174v-1475h-174z" />
<glyph unicode="&#xcf;" horiz-adv-x="542" d="M-33 1608v184h195v-184h-195zM184 0v1475h174v-1475h-174zM387 1608v184h195v-184h-195z" />
<glyph unicode="&#xd0;" horiz-adv-x="1271" d="M61 719v133h144v623h262q145 0 267 -34t209 -118t136 -226.5t49 -359.5q0 -211 -48 -352t-136 -227t-209 -122t-264 -36h-266v719h-144zM379 135h90q125 0 216 32t150.5 103.5t88 186t28.5 280.5q0 317 -116.5 463t-370.5 146h-86v-494h377v-133h-377v-584z" />
<glyph unicode="&#xd1;" horiz-adv-x="1230" d="M184 0v1475h232l477 -1227v1227h154v-1475h-226l-479 1245v-1245h-158zM305 1722q37 39 91 65.5t108 26.5q49 0 80.5 -11t56 -23.5t49.5 -23.5t59 -11q41 0 67 14t54 37l70 -98q-37 -39 -91.5 -65.5t-107.5 -26.5q-49 0 -80.5 11t-56.5 23.5t-49.5 23.5t-59.5 11 q-41 0 -66.5 -14.5t-53.5 -36.5z" />
<glyph unicode="&#xd2;" horiz-adv-x="1347" d="M143 737q0 215 45 361.5t119 236.5t169 130t198 40q102 0 197.5 -40t169 -130t118.5 -236.5t45 -361.5t-45 -361.5t-118.5 -236.5t-170 -130t-196.5 -40q-102 0 -197.5 40t-169.5 130t-119 236.5t-45 361.5zM322 737q0 -311 88 -473t264 -162t264 162t88 473t-88 473 t-264 162t-264 -162t-88 -473zM354 1712l89 141l319 -211l-49 -90z" />
<glyph unicode="&#xd3;" horiz-adv-x="1347" d="M143 737q0 215 45 361.5t119 236.5t169 130t198 40q102 0 197.5 -40t169 -130t118.5 -236.5t45 -361.5t-45 -361.5t-118.5 -236.5t-170 -130t-196.5 -40q-102 0 -197.5 40t-169.5 130t-119 236.5t-45 361.5zM322 737q0 -311 88 -473t264 -162t264 162t88 473t-88 473 t-264 162t-264 -162t-88 -473zM584 1642l320 211l88 -141l-359 -160z" />
<glyph unicode="&#xd4;" horiz-adv-x="1347" d="M143 737q0 215 45 361.5t119 236.5t169 130t198 40q102 0 197.5 -40t169 -130t118.5 -236.5t45 -361.5t-45 -361.5t-118.5 -236.5t-170 -130t-196.5 -40q-102 0 -197.5 40t-169.5 130t-119 236.5t-45 361.5zM322 737q0 -311 88 -473t264 -162t264 162t88 473t-88 473 t-264 162t-264 -162t-88 -473zM350 1647l250 186h148l250 -186l-74 -99l-250 144l-250 -144z" />
<glyph unicode="&#xd5;" horiz-adv-x="1347" d="M143 737q0 215 45 361.5t119 236.5t169 130t198 40q102 0 197.5 -40t169 -130t118.5 -236.5t45 -361.5t-45 -361.5t-118.5 -236.5t-170 -130t-196.5 -40q-102 0 -197.5 40t-169.5 130t-119 236.5t-45 361.5zM322 737q0 -311 88 -473t264 -162t264 162t88 473t-88 473 t-264 162t-264 -162t-88 -473zM354 1718q37 39 91 65.5t108 26.5q49 0 80.5 -11t56 -23.5t49.5 -23.5t59 -11q41 0 67 14t54 37l70 -98q-37 -39 -91.5 -65.5t-107.5 -26.5q-49 0 -80.5 11t-56.5 23.5t-49.5 23.5t-59.5 11q-41 0 -66.5 -14.5t-53.5 -36.5z" />
<glyph unicode="&#xd6;" horiz-adv-x="1347" d="M143 737q0 215 45 361.5t119 236.5t169 130t198 40q102 0 197.5 -40t169 -130t118.5 -236.5t45 -361.5t-45 -361.5t-118.5 -236.5t-170 -130t-196.5 -40q-102 0 -197.5 40t-169.5 130t-119 236.5t-45 361.5zM322 737q0 -311 88 -473t264 -162t264 162t88 473t-88 473 t-264 162t-264 -162t-88 -473zM364 1608v184h195v-184h-195zM784 1608v184h195v-184h-195z" />
<glyph unicode="&#xd7;" d="M164 379l278 278l-278 279l110 111l279 -279l278 279l111 -111l-278 -279l278 -278l-111 -111l-278 279l-279 -279z" />
<glyph unicode="&#xd8;" horiz-adv-x="1347" d="M143 737q0 215 45 361.5t119 236.5t169 130t198 40q51 0 101 -9t97 -32l86 228l129 -41l-98 -262q96 -86 155.5 -244t59.5 -408q0 -215 -45 -361.5t-118.5 -236.5t-170 -130t-196.5 -40q-104 0 -197 39l-84 -229l-129 41l96 262q-96 86 -156.5 244.5t-60.5 410.5z M322 737q0 -346 106 -504l397 1098q-66 41 -151 41q-176 0 -264 -162t-88 -473zM520 143q70 -41 154 -41q176 0 264 162t88 473q0 336 -106 500z" />
<glyph unicode="&#xd9;" horiz-adv-x="1247" d="M174 428v1047h174v-1045q0 -154 63.5 -237.5t213.5 -83.5t216 83.5t66 237.5v1045h166v-1047q0 -225 -115.5 -342t-332.5 -117t-334 117t-117 342zM307 1712l89 141l319 -211l-49 -90z" />
<glyph unicode="&#xda;" horiz-adv-x="1247" d="M174 428v1047h174v-1045q0 -154 63.5 -237.5t213.5 -83.5t216 83.5t66 237.5v1045h166v-1047q0 -225 -115.5 -342t-332.5 -117t-334 117t-117 342zM541 1642l320 211l88 -141l-359 -160z" />
<glyph unicode="&#xdb;" horiz-adv-x="1247" d="M174 428v1047h174v-1045q0 -154 63.5 -237.5t213.5 -83.5t216 83.5t66 237.5v1045h166v-1047q0 -225 -115.5 -342t-332.5 -117t-334 117t-117 342zM301 1643l250 186h148l250 -186l-74 -99l-250 144l-250 -144z" />
<glyph unicode="&#xdc;" horiz-adv-x="1247" d="M174 428v1047h174v-1045q0 -154 63.5 -237.5t213.5 -83.5t216 83.5t66 237.5v1045h166v-1047q0 -225 -115.5 -342t-332.5 -117t-334 117t-117 342zM319 1608v184h195v-184h-195zM739 1608v184h195v-184h-195z" />
<glyph unicode="&#xdd;" horiz-adv-x="1048" d="M20 1475h191l321 -705l326 705h170l-414 -885v-590h-172v590zM467 1642l320 211l88 -141l-359 -160z" />
<glyph unicode="&#xde;" horiz-adv-x="1148" d="M184 0v1475h174v-256h158q113 0 207 -28t161.5 -86t104.5 -146.5t37 -208.5q0 -121 -38 -210t-105.5 -147.5t-161.5 -87.5t-207 -29h-156v-276h-174zM358 410h154q336 0 336 340q0 160 -81 247.5t-247 87.5h-162v-675z" />
<glyph unicode="&#xdf;" horiz-adv-x="2095" d="M102 213l142 66q12 -29 36.5 -61t61.5 -58.5t87 -43t112 -16.5q45 0 90 10.5t79.5 33t57.5 58.5t23 87t-15.5 85t-52.5 59.5t-98.5 49t-153.5 54.5q-147 49 -232 122.5t-85 202.5q0 57 26.5 111.5t76.5 96.5t123 66.5t167 24.5q141 0 240.5 -59.5t152.5 -157.5l-143 -57 q-37 72 -95.5 109.5t-150.5 37.5q-45 0 -88 -9t-76 -28.5t-53.5 -49t-20.5 -73.5q0 -43 15.5 -72.5t48.5 -54t86 -46t131 -50.5q90 -33 157.5 -62.5t113.5 -68.5t68.5 -92t22.5 -133q0 -72 -29.5 -131.5t-84 -102.5t-131 -67.5t-170.5 -24.5q-92 0 -165 22.5t-127 58.5 t-91 79t-56 84zM1118 213l142 66q12 -29 36.5 -61t61.5 -58.5t87 -43t111 -16.5q45 0 90.5 10.5t80 33t57 58.5t22.5 87t-15 85t-52 59.5t-98.5 49t-153.5 54.5q-147 49 -232.5 122.5t-85.5 202.5q0 57 27 111.5t77 96.5t122.5 66.5t167.5 24.5q141 0 240.5 -59.5 t152.5 -157.5l-144 -57q-37 72 -95 109.5t-150 37.5q-45 0 -88 -9t-76 -28.5t-53.5 -49t-20.5 -73.5q0 -43 15.5 -72.5t48 -54t86 -46t131.5 -50.5q90 -33 157.5 -62.5t113.5 -68.5t68.5 -92t22.5 -133q0 -72 -29.5 -131.5t-84 -102.5t-131 -67.5t-171.5 -24.5 q-92 0 -164.5 22.5t-127 58.5t-91 79t-55.5 84z" />
<glyph unicode="&#xe0;" horiz-adv-x="1099" d="M20 0l431 1147h200l428 -1147h-182l-96 276h-512l-99 -276h-170zM262 1446l113 141l297 -254l-70 -88zM334 408h422l-207 604z" />
<glyph unicode="&#xe1;" horiz-adv-x="1099" d="M20 0l431 1147h200l428 -1147h-182l-96 276h-512l-99 -276h-170zM334 408h422l-207 604zM426 1333l297 254l113 -141l-340 -201z" />
<glyph unicode="&#xe2;" horiz-adv-x="1099" d="M20 0l431 1147h200l428 -1147h-182l-96 276h-512l-99 -276h-170zM225 1360l250 207h148l250 -207l-78 -96l-246 161l-246 -161zM334 408h422l-207 604z" />
<glyph unicode="&#xe3;" horiz-adv-x="1099" d="M20 0l431 1147h200l428 -1147h-182l-96 276h-512l-99 -276h-170zM231 1432q37 39 91 65.5t108 26.5q49 0 80.5 -11.5t56 -23.5t49.5 -23.5t59 -11.5q41 0 67 14.5t54 36.5l70 -98q-37 -39 -91.5 -65.5t-107.5 -26.5q-49 0 -80.5 11t-56.5 23.5t-49.5 23.5t-59.5 11 q-41 0 -66.5 -14t-53.5 -37zM334 408h422l-207 604z" />
<glyph unicode="&#xe4;" horiz-adv-x="1099" d="M20 0l431 1147h200l428 -1147h-182l-96 276h-512l-99 -276h-170zM241 1341v185h195v-185h-195zM334 408h422l-207 604zM661 1341v185h195v-185h-195z" />
<glyph unicode="&#xe5;" horiz-adv-x="1099" d="M20 0l426 1139q-66 25 -107.5 80t-41.5 137q0 55 20.5 98t54.5 74t80 46t97 15t97 -15t80 -46t54.5 -74t20.5 -98q0 -82 -41 -136.5t-107 -78.5l426 -1141h-182l-96 276h-512l-99 -276h-170zM334 408h422l-207 604zM426 1356q0 -66 36 -99.5t87 -33.5t87 33.5t36 99.5 t-36 99.5t-87 33.5t-87 -34t-36 -99z" />
<glyph unicode="&#xe6;" horiz-adv-x="1622" d="M20 0l498 1147h944v-137h-700l112 -361h556v-133h-512l118 -379h463v-137h-594l-82 276h-518l-115 -276h-170zM360 408h424l-176 591z" />
<glyph unicode="&#xe7;" horiz-adv-x="1153" d="M143 573q0 172 47.5 289t120 186.5t160.5 99.5t168 30q143 0 235.5 -60.5t145.5 -146.5l-141 -70q-33 63 -93.5 102t-146.5 39q-55 0 -112.5 -21.5t-103.5 -75.5t-76 -144t-30 -228q0 -135 30 -225t76 -144t102.5 -76t111.5 -22q94 0 160.5 44.5t101.5 121.5l139 -75 q-47 -92 -137 -153.5t-225 -72.5l-4 -75q86 -18 124 -69.5t38 -117.5q0 -90 -68 -146.5t-172 -56.5q-59 0 -109.5 13.5t-89.5 36.5l51 100q23 -10 57 -19.5t64 -9.5q47 0 82 18.5t35 71.5q0 47 -50 68.5t-126 32.5l29 162q-72 12 -142.5 50t-126 108.5t-90.5 177t-35 257.5z " />
<glyph unicode="&#xe8;" horiz-adv-x="1001" d="M184 0v1147h695v-137h-527v-361h467v-133h-467v-379h527v-137h-695zM274 1446l113 141l297 -254l-70 -88z" />
<glyph unicode="&#xe9;" horiz-adv-x="1001" d="M184 0v1147h695v-137h-527v-361h467v-133h-467v-379h527v-137h-695zM377 1333l297 254l113 -141l-340 -201z" />
<glyph unicode="&#xea;" horiz-adv-x="1001" d="M184 0v1147h695v-137h-527v-361h467v-133h-467v-379h527v-137h-695zM213 1360l250 207h148l250 -207l-78 -96l-246 161l-246 -161z" />
<glyph unicode="&#xeb;" horiz-adv-x="1001" d="M184 0v1147h695v-137h-527v-361h467v-133h-467v-379h527v-137h-695zM225 1341v185h195v-185h-195zM645 1341v185h195v-185h-195z" />
<glyph unicode="&#xec;" horiz-adv-x="536" d="M-17 1446l113 141l297 -254l-70 -88zM184 0v1147h168v-1147h-168z" />
<glyph unicode="&#xed;" horiz-adv-x="536" d="M145 1333l297 254l113 -141l-340 -201zM184 0v1147h168v-1147h-168z" />
<glyph unicode="&#xee;" horiz-adv-x="536" d="M-54 1360l250 207h148l250 -207l-78 -96l-246 161l-246 -161zM184 0v1147h168v-1147h-168z" />
<glyph unicode="&#xef;" horiz-adv-x="536" d="M-37 1341v185h195v-185h-195zM184 0v1147h168v-1147h-168zM383 1341v185h195v-185h-195z" />
<glyph unicode="&#xf0;" horiz-adv-x="1224" d="M82 512v129h123v506h297q102 0 205.5 -24.5t186.5 -89t135 -176.5t52 -284t-57 -283.5t-143 -176t-188.5 -89t-192.5 -24.5h-295v512h-123zM371 129h137q76 0 149.5 18.5t131 67.5t92 135t34.5 223t-36.5 224.5t-96 137.5t-132 68.5t-144.5 18.5h-135v-381h334v-129h-334 v-383z" />
<glyph unicode="&#xf1;" horiz-adv-x="1187" d="M184 0v1147h242l424 -948v948h154v-1147h-238l-424 958v-958h-158zM277 1432q37 39 91 65.5t108 26.5q49 0 80.5 -11.5t56 -23.5t49.5 -23.5t59 -11.5q41 0 67 14.5t54 36.5l70 -98q-37 -39 -91.5 -65.5t-107.5 -26.5q-49 0 -80.5 11t-56.5 23.5t-49.5 23.5t-59.5 11 q-41 0 -66.5 -14t-53.5 -37z" />
<glyph unicode="&#xf2;" horiz-adv-x="1314" d="M143 573q0 160 43 275t115 188.5t165 107.5t191 34t191.5 -34t165 -107.5t114.5 -188.5t43 -275t-43 -274.5t-115.5 -188t-164.5 -107.5t-191 -34q-98 0 -190 34t-165 107.5t-116 188t-43 274.5zM315 573q0 -233 91.5 -351t250.5 -118q160 0 251 118t91 351t-91 352 t-251 119t-251 -117.5t-91 -353.5zM370 1446l113 141l297 -254l-70 -88z" />
<glyph unicode="&#xf3;" horiz-adv-x="1314" d="M143 573q0 160 43 275t115 188.5t165 107.5t191 34t191.5 -34t165 -107.5t114.5 -188.5t43 -275t-43 -274.5t-115.5 -188t-164.5 -107.5t-191 -34q-98 0 -190 34t-165 107.5t-116 188t-43 274.5zM315 573q0 -233 91.5 -351t250.5 -118q160 0 251 118t91 351t-91 352 t-251 119t-251 -117.5t-91 -353.5zM535 1333l297 254l113 -141l-340 -201z" />
<glyph unicode="&#xf4;" horiz-adv-x="1314" d="M143 573q0 160 43 275t115 188.5t165 107.5t191 34t191.5 -34t165 -107.5t114.5 -188.5t43 -275t-43 -274.5t-115.5 -188t-164.5 -107.5t-191 -34q-98 0 -190 34t-165 107.5t-116 188t-43 274.5zM315 573q0 -233 91.5 -351t250.5 -118q160 0 251 118t91 351t-91 352 t-251 119t-251 -117.5t-91 -353.5zM333 1360l250 207h148l250 -207l-78 -96l-246 161l-246 -161z" />
<glyph unicode="&#xf5;" horiz-adv-x="1314" d="M143 573q0 160 43 275t115 188.5t165 107.5t191 34t191.5 -34t165 -107.5t114.5 -188.5t43 -275t-43 -274.5t-115.5 -188t-164.5 -107.5t-191 -34q-98 0 -190 34t-165 107.5t-116 188t-43 274.5zM315 573q0 -233 91.5 -351t250.5 -118q160 0 251 118t91 351t-91 352 t-251 119t-251 -117.5t-91 -353.5zM340 1432q37 39 91 65.5t108 26.5q49 0 80.5 -11.5t56 -23.5t49.5 -23.5t59 -11.5q41 0 67 14.5t54 36.5l70 -98q-37 -39 -91.5 -65.5t-107.5 -26.5q-49 0 -80.5 11t-56.5 23.5t-49.5 23.5t-59.5 11q-41 0 -66.5 -14t-53.5 -37z" />
<glyph unicode="&#xf6;" horiz-adv-x="1314" d="M143 573q0 160 43 275t115 188.5t165 107.5t191 34t191.5 -34t165 -107.5t114.5 -188.5t43 -275t-43 -274.5t-115.5 -188t-164.5 -107.5t-191 -34q-98 0 -190 34t-165 107.5t-116 188t-43 274.5zM315 573q0 -233 91.5 -351t250.5 -118q160 0 251 118t91 351t-91 352 t-251 119t-251 -117.5t-91 -353.5zM350 1341v185h195v-185h-195zM770 1341v185h195v-185h-195z" />
<glyph unicode="&#xf7;" d="M133 590v143h840v-143h-840zM451 104v205h204v-205h-204zM451 1001v205h204v-205h-204z" />
<glyph unicode="&#xf8;" horiz-adv-x="1314" d="M143 573q0 160 43 275t115 188.5t165 107.5t191 34q92 0 183 -31l86 190l139 -55l-94 -207q90 -72 145 -194.5t55 -307.5q0 -160 -43 -274.5t-115.5 -188t-164.5 -107.5t-191 -34q-86 0 -172 29l-92 -207l-143 57l100 220q-92 72 -149.5 195.5t-57.5 309.5zM315 573 q0 -250 107 -368l364 815q-59 25 -129 24q-160 0 -251 -117.5t-91 -353.5zM539 125q49 -20 118 -21q160 0 251 118t91 351q0 238 -98 361z" />
<glyph unicode="&#xf9;" horiz-adv-x="1220" d="M174 371v776h168v-789q0 -117 62.5 -184.5t207.5 -67.5t209 68t64 184v789h162v-776q0 -180 -113 -291t-324 -111q-209 0 -322.5 110.5t-113.5 291.5zM323 1446l113 141l297 -254l-70 -88z" />
<glyph unicode="&#xfa;" horiz-adv-x="1220" d="M174 371v776h168v-789q0 -117 62.5 -184.5t207.5 -67.5t209 68t64 184v789h162v-776q0 -180 -113 -291t-324 -111q-209 0 -322.5 110.5t-113.5 291.5zM487 1333l297 254l113 -141l-340 -201z" />
<glyph unicode="&#xfb;" horiz-adv-x="1220" d="M174 371v776h168v-789q0 -117 62.5 -184.5t207.5 -67.5t209 68t64 184v789h162v-776q0 -180 -113 -291t-324 -111q-209 0 -322.5 110.5t-113.5 291.5zM286 1360l250 207h148l250 -207l-78 -96l-246 161l-246 -161z" />
<glyph unicode="&#xfc;" horiz-adv-x="1220" d="M174 371v776h168v-789q0 -117 62.5 -184.5t207.5 -67.5t209 68t64 184v789h162v-776q0 -180 -113 -291t-324 -111q-209 0 -322.5 110.5t-113.5 291.5zM303 1341v185h195v-185h-195zM723 1341v185h195v-185h-195z" />
<glyph unicode="&#xfd;" horiz-adv-x="997" d="M20 1147h189l297 -553l303 553h168l-393 -705v-442h-164v442zM375 1333l297 254l113 -141l-340 -201z" />
<glyph unicode="&#xfe;" horiz-adv-x="1112" d="M184 0v1147h166v-184h150q104 0 190 -24t147.5 -70t96.5 -117.5t35 -165.5q0 -96 -36 -167t-100.5 -118t-151.5 -69.5t-189 -22.5h-142v-209h-166zM350 336h146q303 0 303 250q0 121 -75 185.5t-220 64.5h-154v-500z" />
<glyph unicode="&#xff;" horiz-adv-x="997" d="M20 1147h189l297 -553l303 553h168l-393 -705v-442h-164v442zM190 1341v185h195v-185h-195zM610 1341v185h195v-185h-195z" />
<glyph unicode="&#x152;" horiz-adv-x="1830" d="M143 737q0 215 45 361.5t119 236.5t169 130t198 40q90 0 174 -30h860v-134h-676q70 -84 113 -213t51 -315h451v-131h-451q-6 -197 -50 -330t-114 -219h676v-133h-860q-84 -31 -174 -31q-102 0 -197.5 40t-169.5 130t-119 236.5t-45 361.5zM322 737q0 -311 88 -473 t264 -162t264 162t88 473t-88 473t-264 162t-264 -162t-88 -473z" />
<glyph unicode="&#x153;" horiz-adv-x="1789" d="M143 573q0 160 43 275t115 188.5t165 107.5t191 34q92 0 183 -31h870v-137h-674q53 -66 88 -154t43 -207h484v-133h-482q-8 -125 -42.5 -219t-90.5 -160h674v-137h-872q-86 -31 -181 -31q-98 0 -190 34t-165 107.5t-116 188.5t-43 274zM315 573q0 -233 91.5 -351 t250.5 -118q160 0 251 118t91 351t-91 352t-251 119t-251 -117.5t-91 -353.5z" />
<glyph unicode="&#x2c6;" horiz-adv-x="770" d="M61 1360l250 207h148l250 -207l-78 -96l-246 161l-246 -161z" />
<glyph unicode="&#x2dc;" horiz-adv-x="716" d="M41 1432q37 39 91 65.5t108 26.5q49 0 80.5 -11.5t56 -23.5t49.5 -23.5t59 -11.5q41 0 67 14.5t54 36.5l70 -98q-37 -39 -91.5 -65.5t-107.5 -26.5q-49 0 -80.5 11t-56.5 23.5t-49.5 23.5t-59.5 11q-41 0 -66.5 -14t-53.5 -37z" />
<glyph unicode="&#x2000;" horiz-adv-x="944" />
<glyph unicode="&#x2001;" horiz-adv-x="1888" />
<glyph unicode="&#x2002;" horiz-adv-x="944" />
<glyph unicode="&#x2003;" horiz-adv-x="1888" />
<glyph unicode="&#x2004;" horiz-adv-x="629" />
<glyph unicode="&#x2005;" horiz-adv-x="472" />
<glyph unicode="&#x2006;" horiz-adv-x="314" />
<glyph unicode="&#x2007;" horiz-adv-x="314" />
<glyph unicode="&#x2008;" horiz-adv-x="236" />
<glyph unicode="&#x2009;" horiz-adv-x="377" />
<glyph unicode="&#x200a;" horiz-adv-x="104" />
<glyph unicode="&#x2010;" horiz-adv-x="870" d="M123 588v147h625v-147h-625z" />
<glyph unicode="&#x2011;" horiz-adv-x="870" d="M123 588v147h625v-147h-625z" />
<glyph unicode="&#x2012;" horiz-adv-x="870" d="M123 588v147h625v-147h-625z" />
<glyph unicode="&#x2013;" horiz-adv-x="819" d="M0 588v147h819v-147h-819z" />
<glyph unicode="&#x2014;" horiz-adv-x="1228" d="M0 588v147h1229v-147h-1229z" />
<glyph unicode="&#x2018;" horiz-adv-x="528" d="M121 999v193l153 315h97l-45 -313v-195h-205z" />
<glyph unicode="&#x2019;" horiz-adv-x="528" d="M125 936l45 313v195h205v-193l-154 -315h-96z" />
<glyph unicode="&#x201a;" horiz-adv-x="528" d="M125 -313l45 313v195h205v-193l-154 -315h-96z" />
<glyph unicode="&#x201c;" horiz-adv-x="854" d="M121 999v193l153 315h97l-45 -313v-195h-205zM446 999v193l154 315h96l-45 -313v-195h-205z" />
<glyph unicode="&#x201d;" horiz-adv-x="835" d="M125 936l45 313v195h205v-193l-154 -315h-96zM432 936l45 313v195h205v-193l-154 -315h-96z" />
<glyph unicode="&#x201e;" horiz-adv-x="835" d="M125 -313l45 313v195h205v-193l-154 -315h-96zM432 -313l45 313v195h205v-193l-154 -315h-96z" />
<glyph unicode="&#x2022;" horiz-adv-x="645" d="M164 516v297h317v-297h-317z" />
<glyph unicode="&#x202f;" horiz-adv-x="377" />
<glyph unicode="&#x2039;" horiz-adv-x="636" d="M123 627l239 420l111 -41l-168 -385l148 -414l-111 -41z" />
<glyph unicode="&#x203a;" horiz-adv-x="636" d="M164 1006l110 41l240 -420l-219 -461l-111 41l148 414z" />
<glyph unicode="&#x205f;" horiz-adv-x="472" />
<glyph unicode="&#x20ac;" d="M51 496l31 122h141q-2 20 -2 41v91q0 25 2 47h-172l31 123h151q20 162 68.5 265t114 163.5t142.5 83t151 22.5q125 0 204.5 -43t145.5 -113l-107 -96q-53 63 -107 94t-130 31q-135 0 -214 -98.5t-104 -308.5h502l-31 -123h-479q-2 -23 -2 -47v-91q0 -20 2 -41h436 l-30 -122h-398q12 -111 42 -185.5t71 -122t92 -68t107 -20.5q72 0 124 28t93 77l104 -96q-63 -72 -144 -106t-184 -34q-66 0 -139.5 20.5t-141 78t-119.5 161t-71 267.5h-180z" />
<glyph unicode="&#x25fc;" horiz-adv-x="1146" d="M0 0v1147h1147v-1147h-1147z" />
</font>
</defs>
</svg>
